<svg width="60" height="60" viewBox="0 0 60 60" fill="none" xmlns="http://www.w3.org/2000/svg"><g clip-path="url(#clip0)" fill="#F7654A"><path d="M59.867 52.44a.999.999 0 00-.81-.414H48.093V23.121a.997.997 0 00-.996-.996h-6.409c.376-.364.71-.768.997-1.206a6.949 6.949 0 00.487-6.665L36.042.781a.996.996 0 00-1.877.184l-.777 3.308a21.956 21.956 0 01-5.115 9.724 1.053 1.053 0 00-.17.257 6.949 6.949 0 00.488 6.665c.286.438.62.842.996 1.206h-6.412a.997.997 0 00-.996.996v28.905H12.21v-8.97a.997.997 0 00-.818-.98L.429 40.083l-.357 1.959 10.146 1.846v9.135h.006a.97.97 0 00.046.315l1.993 5.98a.997.997 0 00.945.682h43.856c.429 0 .81-.275.944-.682l1.994-5.98a.997.997 0 00-.135-.898zm-29.603-32.6a4.966 4.966 0 01-.406-4.627 23.957 23.957 0 005.468-10.485l.11-.463L40.35 15.08a4.984 4.984 0 01-4.536 7.045h-1.359a4.964 4.964 0 01-4.19-2.286h-.002zM46.1 24.117v8.044a3.075 3.075 0 00-2.43.031c-1.202.585-1.564 1.887-1.884 3.034-.291 1.045-.517 1.743-.982 1.894-.399.136-1.752-.384-3.319-.98a24.131 24.131 0 01-1.495-.63 3.1 3.1 0 00-2.017-.418c-1.403.243-2.242 1.43-3.634 3.397a20.088 20.088 0 00-1.197 1.894 3.696 3.696 0 01-.69.971 6.382 6.382 0 01-3.415 1.707 5.858 5.858 0 01-.858.053V24.117h21.92zm-21.928 20.99c.026 0 .052.006.077.006a7.52 7.52 0 001.082-.078 8.436 8.436 0 004.533-2.278 5.63 5.63 0 001.008-1.395 17.95 17.95 0 011.09-1.725c1.154-1.63 1.783-2.485 2.35-2.584.152-.03.18-.03.857.274.38.171.88.398 1.607.674 2.381.906 3.58 1.366 4.658 1.008 1.507-.507 1.932-2.03 2.272-3.252.217-.78.442-1.586.84-1.781.148-.073.582-.167 1.554.341v17.71H24.172v-6.92zm32.173 12.9H13.926l-1.328-3.987h45.076l-1.329 3.986zM16.508 6.077l2.522 1.26 1.26 2.522a.996.996 0 001.784 0l1.26-2.522 2.521-1.26a.996.996 0 000-1.784l-2.521-1.26L22.079.507a1.04 1.04 0 00-1.784 0l-1.26 2.522-2.522 1.26a.998.998 0 000 1.783l-.005.005zm3.71-1.415a.982.982 0 00.445-.445l.519-1.036.518 1.036c.096.193.252.35.445.445l1.036.518-1.036.519a.982.982 0 00-.445.445l-.518 1.036-.518-1.036a.983.983 0 00-.446-.445l-1.036-.519 1.036-.518zM46.41 8.07l2.521 1.26 1.26 2.523a.996.996 0 001.785 0l1.26-2.522 2.521-1.26a.996.996 0 000-1.784l-2.522-1.26L51.98 2.5a1.039 1.039 0 00-1.784 0l-1.26 2.522-2.521 1.26a.998.998 0 000 1.784l-.005.005zm3.71-1.415a.983.983 0 00.445-.445l.519-1.036.518 1.036c.095.193.252.35.445.445l1.036.519-1.036.518a.983.983 0 00-.445.446l-.518 1.035-.519-1.035a.984.984 0 00-.446-.446l-1.035-.518 1.035-.519z"/></g><defs><clipPath id="clip0"><path fill="#fff" d="M0 0h60v60H0z"/></clipPath></defs></svg>