<svg width="60" height="60" viewBox="0 0 60 60" fill="none" xmlns="http://www.w3.org/2000/svg"><g clip-path="url(#clip0)" fill="#F7654A"><path d="M45.404 53.413A10.902 10.902 0 0141.7 43.387l3.188-20.459a25.07 25.07 0 00.298-3.836v-.14A18.982 18.982 0 0020.265.953a18.789 18.789 0 00-12.927 17.95v4.033c0 8.623 0 24.674 8.345 31.659C21.19 59.21 29.935 60 38.212 60c2.263 0 4.49-.059 6.606-.114 1.9-.052 3.698-.1 5.346-.1h2.698l-7.459-6.373zm-.642 4.482c-9.518.253-21.364.566-27.8-4.827C9.33 46.68 9.33 31.234 9.33 22.936v-4.034A16.781 16.781 0 0120.854 2.857a18.235 18.235 0 015.395-.827 16.913 16.913 0 0116.944 16.923v.14a22.87 22.87 0 01-.274 3.53l-3.187 20.46a12.885 12.885 0 004.383 11.845l3.393 2.9c-.89.018-1.805.042-2.746.068z"/><path d="M18.294 12.976c-2.197 0-3.984 2.234-3.984 4.98 0 2.746 1.787 4.98 3.984 4.98s3.984-2.234 3.984-4.98c0-2.746-1.787-4.98-3.984-4.98zm0 7.968c-1.08 0-1.992-1.368-1.992-2.988 0-1.62.912-2.988 1.992-2.988s1.992 1.369 1.992 2.988c0 1.62-.912 2.988-1.992 2.988zm15.936-7.968c-2.198 0-3.984 2.234-3.984 4.98 0 2.746 1.786 4.98 3.984 4.98 2.197 0 3.983-2.234 3.983-4.98 0-2.746-1.786-4.98-3.983-4.98zm0 7.968c-1.08 0-1.992-1.368-1.992-2.988 0-1.62.912-2.988 1.992-2.988s1.991 1.369 1.991 2.988c0 1.62-.912 2.988-1.991 2.988zM26.262 31.73l-3.522-3.522-1.408 1.408 4.226 4.226a.996.996 0 001.408 0l4.226-4.226-1.408-1.408-3.522 3.522z"/></g><defs><clipPath id="clip0"><path fill="#fff" d="M0 0h60v60H0z"/></clipPath></defs></svg>