<svg width="60" height="60" viewBox="0 0 60 60" fill="none" xmlns="http://www.w3.org/2000/svg"><g clip-path="url(#clip0)" fill="#F7654A"><path d="M54.515 47.87a4.896 4.896 0 01-.026-1.434l.403-3.104a6.811 6.811 0 00-.754-4.116l-1.348-2.518a4.865 4.865 0 01-.541-2.93l.338-2.65a6.882 6.882 0 00-.392-3.309l-.85-2.226 2.114-.88a4.885 4.885 0 002.929-3.595l2.787-14.566a2.957 2.957 0 00-1.157-3.854l-1.697-.979a2.96 2.96 0 00-4.011 1.077.983.983 0 00-.122.332l-2.162 13.55a2.905 2.905 0 01-1.325 1.996l-.028-.075C48.673 8.322 40.35 0 30.084 0c-10.267 0-18.59 8.322-18.59 18.59l-.029.077a2.903 2.903 0 01-1.324-1.995L7.979 3.118a.993.993 0 00-.12-.34 2.955 2.955 0 00-4.016-1.075l-1.696.978A2.956 2.956 0 00.993 6.542l2.79 14.578a4.882 4.882 0 002.924 3.589l2.118.88-.852 2.215a6.875 6.875 0 00-.392 3.326l.342 2.611a4.869 4.869 0 01-.53 2.92l-1.377 2.61a6.794 6.794 0 00-.735 4.13l.404 2.972c.067.488.06.982-.023 1.468l-4.198 7.164a2.935 2.935 0 003.41 4.284l6.566-2.055a4.93 4.93 0 012.25-.023l6.03 1.363a6.93 6.93 0 002.986.006l6.231-1.375a4.94 4.94 0 012.25.033l5.357 1.35a6.84 6.84 0 002.51.156l6.211-.764a4.836 4.836 0 011.038-.016l9.61 1.974a2.936 2.936 0 003.123-4.36l-4.521-7.708zm-2.557-30.89l2.128-13.337a.992.992 0 011.259-.245l1.69.978a.978.978 0 01.357 1.35.973.973 0 00-.111.303l-2.817 14.707a2.935 2.935 0 01-1.754 2.162l-2.066.857-1.23-3.221a4.852 4.852 0 002.544-3.554zM7.454 22.896a2.93 2.93 0 01-1.75-2.152L2.884 6.026a.973.973 0 00-.11-.302.978.978 0 01.355-1.349l1.688-.978a.991.991 0 011.262.242l2.131 13.34a4.85 4.85 0 002.544 3.555l-1.23 3.22-2.07-.858zm49.844 34.732a.964.964 0 01-.993.392l-9.655-1.985a1.485 1.485 0 00-.098-.015 6.988 6.988 0 00-1.52.017l-6.208.765c-.6.072-1.209.035-1.795-.112l-5.357-1.35a6.884 6.884 0 00-3.15-.047l-6.236 1.376a4.912 4.912 0 01-2.13-.005l-6.033-1.362a6.927 6.927 0 00-3.21.049l-6.622 2.067a.964.964 0 01-1.058-.326.954.954 0 01-.08-1.103l4.282-7.315a.99.99 0 00.115-.301c.15-.747.173-1.513.07-2.268l-.404-2.971a4.855 4.855 0 01.524-2.951l1.382-2.606a6.807 6.807 0 00.741-4.09l-.339-2.615a4.917 4.917 0 01.281-2.375l3.583-9.38a.977.977 0 00.064-.345c0-9.186 7.446-16.632 16.632-16.632 9.186 0 16.633 7.446 16.633 16.632-.001.12.02.237.063.348l3.585 9.387a4.92 4.92 0 01.282 2.364l-.339 2.65a6.817 6.817 0 00.756 4.1l1.348 2.519c.483.897.673 1.924.54 2.935l-.402 3.104a6.81 6.81 0 00.075 2.226c.022.106.06.209.115.303l4.606 7.855a.961.961 0 01-.048 1.07v-.005z"/><path d="M3.668 31.491a2.935 2.935 0 100-5.87 2.935 2.935 0 000 5.87zm0-3.913a.978.978 0 110 1.956.978.978 0 010-1.956zm0 10.762a2.935 2.935 0 100-5.87 2.935 2.935 0 000 5.87zm0-3.914a.978.978 0 110 1.957.978.978 0 010-1.957zM56.5 25.62a2.935 2.935 0 100 5.87 2.935 2.935 0 000-5.87zm0 3.914a.978.978 0 110-1.956.978.978 0 010 1.956zm0 2.936a2.935 2.935 0 100 5.87 2.935 2.935 0 000-5.87zm0 3.913a.978.978 0 110-1.956.978.978 0 010 1.956zM30.084 6.053c-5.944 0-10.762 4.818-10.762 10.762 0 5.944 4.818 10.762 10.762 10.762 5.943 0 10.762-4.818 10.762-10.762-.007-5.94-4.821-10.755-10.762-10.762zm0 19.568a8.805 8.805 0 01-8.805-8.806 8.805 8.805 0 1117.61 0 8.815 8.815 0 01-8.805 8.806zm7.104 3.808a4.859 4.859 0 00-2.348.075 6.076 6.076 0 01-1.689.173 3.384 3.384 0 01-.97-.419 4.421 4.421 0 00-2.097-.702 4.3 4.3 0 00-2.067.701 3.253 3.253 0 01-.936.413 6.509 6.509 0 01-1.778-.162 5.086 5.086 0 00-2.418-.051 5.019 5.019 0 00-3.563 3.99c0 1.518 1.894 3.644 4.61 4.266a9.783 9.783 0 003.585-.098 17.65 17.65 0 012.567-.254 17.08 17.08 0 012.543.256c.768.137 1.544.217 2.323.238.407.004.814-.038 1.212-.124 2.76-.621 4.684-2.756 4.684-4.283 0-1.232-1.392-3.357-3.658-4.02zM32.04 35.56v-1.135h1.957v1.403c-.343-.04-.697-.09-1.077-.147a34.334 34.334 0 00-.88-.12zm3.913.196v-2.31a.978.978 0 00-.978-.978h-3.913a.978.978 0 00-.979.979v1.957c-.956.02-1.91.11-2.853.27a8.377 8.377 0 01-2.862.132 4.177 4.177 0 01-3.09-2.36 3.325 3.325 0 012.168-2.117 3.68 3.68 0 011.504.099c.758.17 1.536.233 2.311.186a4.492 4.492 0 001.7-.648c.34-.227.72-.382 1.122-.454.417.073.815.232 1.168.466a4.56 4.56 0 001.715.646 7.45 7.45 0 002.257-.201c.459-.136.94-.176 1.414-.117a3.406 3.406 0 012.252 2.14 4.18 4.18 0 01-2.936 2.309z"/><path d="M30.084 12.902a3.913 3.913 0 100 7.827 3.913 3.913 0 000-7.827zm0 5.87a1.957 1.957 0 110-3.913 1.957 1.957 0 010 3.913z"/></g><defs><clipPath id="clip0"><path fill="#fff" d="M0 0h60v60H0z"/></clipPath></defs></svg>