<svg width="60" height="60" viewBox="0 0 60 60" fill="none" xmlns="http://www.w3.org/2000/svg"><g clip-path="url(#clip0)" fill="#F7654A"><path d="M37 34.136V16h2a3 3 0 003-3v-2a3 3 0 00-3-3h-2V3a3 3 0 00-3-3h-8a3 3 0 00-3 3v5h-2a3 3 0 00-3 3v2a3 3 0 003 3h2v18.133C14.437 35.122 7.982 42.38 8 51a9.01 9.01 0 009 9h26a8.987 8.987 0 009-9c-.016-8.606-6.455-15.845-15-16.864zM25 3a1 1 0 011-1h8a1 1 0 011 1v5H25V3zm-5 10v-2a1 1 0 011-1h18a1 1 0 011 1v2a1 1 0 01-1 1H21a1 1 0 01-1-1zm15 3v19c0 .036.017.066.02.1a.99.99 0 00.918.928 14.954 14.954 0 0110.73 5.572c-.39-.152-.772-.32-1.17-.507a9.88 9.88 0 00-4.568-1.183c-1.478-.03-2.93.4-4.153 1.231a5.643 5.643 0 01-6.263 0 7.134 7.134 0 00-4.154-1.23 7.164 7.164 0 00-4.16 1.231 5.265 5.265 0 01-3.137.948 5.22 5.22 0 01-3.127-.95 9.687 9.687 0 00-1.516-.78 15.03 15.03 0 019.645-4.332.988.988 0 00.918-.927c0-.035.02-.065.02-.1V16H35zm12.955 39.951A6.995 6.995 0 0143 58H17a7.008 7.008 0 01-7-7 14.908 14.908 0 012.991-8.972c.682.157 1.33.437 1.912.826a7.131 7.131 0 004.157 1.236c1.482.03 2.936-.4 4.163-1.232a5.645 5.645 0 016.263 0 7.633 7.633 0 008.318 0 5.233 5.233 0 013.126-.947c1.303.02 2.58.364 3.718 1a10.71 10.71 0 003.617 1.11A14.911 14.911 0 0150 51a6.993 6.993 0 01-2.045 4.951z"/><path d="M16 45a3 3 0 100 6 3 3 0 000-6zm0 4a1 1 0 110-2 1 1 0 010 2zm11 1a3 3 0 100 6 3 3 0 000-6zm0 4a1 1 0 110-2 1 1 0 010 2zm17-9a3 3 0 100 6 3 3 0 000-6zm0 4a1 1 0 110-2 1 1 0 010 2z"/></g><defs><clipPath id="clip0"><path fill="#fff" d="M0 0h60v60H0z"/></clipPath></defs></svg>