<svg width="60" height="60" viewBox="0 0 60 60" fill="none" xmlns="http://www.w3.org/2000/svg"><g clip-path="url(#clip0)" fill="#F7654A"><path d="M16.007 8.022a3.998 3.998 0 10.001-7.996 3.998 3.998 0 000 7.996zm0-5.998a2 2 0 110 3.999 2 2 0 010-3.999zM6.011 22.016a3.998 3.998 0 10.001-7.996 3.998 3.998 0 000 7.996zm0-5.997a2 2 0 110 3.998 2 2 0 010-3.998zM53.992 39.01a3.999 3.999 0 100 7.997 3.999 3.999 0 000-7.997zm0 5.997a2 2 0 110-3.998 2 2 0 010 3.998zm-19.992 1a3.999 3.999 0 100 7.997 3.999 3.999 0 000-7.997zm0 5.997a1.999 1.999 0 110-3.997 1.999 1.999 0 010 3.997zM59.967 24.76L54.969 5.768a1 1 0 00-.7-.71l-18-4.997a.993.993 0 00-.949.23l-14 12.995a1.001 1.001 0 00-.293.961L24.904 30.7.293 55.296a.999.999 0 000 1.413l2.999 3a.998.998 0 001.414 0l27-26.99a.998.998 0 00.252-.989l-4.823-16.393L37.26 6.14l12.92 3.69 3.687 13.824-10.11 8.266-2.759-.688-.017-5.937 2.91-4.757a.999.999 0 00-.852-1.52h-4.061a1 1 0 00-.8.4L35.2 23.415a.998.998 0 00-.2.6V35.01a1 1 0 00.684.949l8.996 2.998a1 1 0 001-.215l14-12.995a1 1 0 00.287-.988zm-15.14 12.114L37 34.29v-9.943l2.504-3.33h1.795l-2.147 3.475c-.098.16-.15.342-.149.53l.016 6.99a1 1 0 00.76.968l4.044 1c.31.077.638.002.884-.2l11.107-8.997a1 1 0 00.336-1.036L52.11 8.753a1 1 0 00-.693-.7l-14.15-3.999a1 1 0 00-.942.219l-11.11 9.996a1 1 0 00-.29 1.028l4.877 16.428L3.678 57.588l-1.601-1.586L26.603 31.72a.991.991 0 00.27-.935L22.97 14.356 36.265 2.137l17.073 4.698 4.746 17.858-13.256 12.181z"/></g><defs><clipPath id="clip0"><path fill="#fff" d="M0 0h60v60H0z"/></clipPath></defs></svg>